<?xml version="1.0" encoding="UTF-8" standalone="no"?>
<!DOCTYPE svg PUBLIC "-//W3C//DTD SVG 1.1//EN" "http://www.w3.org/Graphics/SVG/1.1/DTD/svg11.dtd">
<svg width="100%" height="100%" viewBox="0 0 2732 2048" version="1.1" xmlns="http://www.w3.org/2000/svg" xmlns:xlink="http://www.w3.org/1999/xlink" xml:space="preserve" xmlns:serif="http://www.serif.com/" style="fill-rule:evenodd;clip-rule:evenodd;stroke-linejoin:round;stroke-miterlimit:2;">
    <g transform="matrix(1,0,0,1,-5.81676,16.7651)">
        <rect x="-70.943" y="-54.083" width="2850.36" height="2147.99"/>
    </g>
    <g transform="matrix(1.18854,0,0,0.84838,-165.912,542.977)">
        <path d="M1996.96,507.155C1996.92,507.154 1792.02,504.816 1565.17,503.224C1503.88,502.794 1441,502.316 1380.11,502.311C1161.57,502.293 968.882,504.274 968.882,504.274C968.224,504.274 967.606,504.714 967.219,505.459C967.219,505.459 887.617,660.261 818.459,794.066C765.661,896.218 718.929,986.107 718.929,986.107C718.735,986.48 718.706,986.974 718.854,987.387C719.001,987.801 719.301,988.064 719.631,988.07C719.631,988.07 790.536,989.518 896.416,992.373C1048.34,996.471 1272.25,1003.88 1462.1,1009.12C1512.28,1010.5 1560.07,1011.83 1603.53,1012.73C1644.85,1013.59 1682.24,1014.15 1714.03,1014.5C1782.17,1015.24 1824.54,1015.13 1824.54,1015.13C1826.56,1015.17 1828.41,1013.57 1829.29,1011.01C1829.29,1011.01 1996.93,507.235 1996.96,507.155L1996.96,507.155ZM1996.96,507.155L1821.44,1000.45C1810.34,1000.02 1771.34,998.56 1714.2,997.007C1682.42,996.143 1645.03,995.28 1603.71,994.566C1560.25,993.814 1512.44,993.323 1462.26,992.797C1272.38,990.809 1048.41,989.703 896.458,988.021C800.119,986.954 732.738,985.823 721.361,985.628C728.412,972.054 771.613,888.911 820.218,795.859C886.273,669.4 962.274,524.606 969.917,510.047C985.336,510.201 1170.88,512.016 1380.11,511.999C1441,511.994 1503.88,511.516 1565.17,511.086C1791.9,509.494 1996.7,507.158 1996.96,507.155L1996.96,507.155Z" style="fill:url(#_Linear1);"/>
    </g>
    <g transform="matrix(1.18854,0,0,0.84838,-157.601,751.925)">
        <path d="M1996.96,507.155C1996.92,507.154 1792.02,504.816 1565.17,503.224C1503.88,502.794 1441,502.316 1380.11,502.311C1161.57,502.293 968.882,504.274 968.882,504.274C968.224,504.274 967.606,504.714 967.219,505.459C967.219,505.459 887.617,660.261 818.459,794.066C765.661,896.218 718.929,986.107 718.929,986.107C718.735,986.48 718.706,986.974 718.854,987.387C719.001,987.801 719.301,988.064 719.631,988.07C719.631,988.07 790.536,989.518 896.416,992.373C1048.34,996.471 1272.25,1003.88 1462.1,1009.12C1512.28,1010.5 1560.07,1011.83 1603.53,1012.73C1644.85,1013.59 1682.24,1014.15 1714.03,1014.5C1782.17,1015.24 1824.54,1015.13 1824.54,1015.13C1826.56,1015.17 1828.41,1013.57 1829.29,1011.01L1996.96,507.155L1996.96,507.155ZM1996.96,507.155L1821.44,1000.45C1810.34,1000.02 1771.34,998.56 1714.2,997.007C1682.42,996.143 1645.03,995.28 1603.71,994.566C1560.25,993.814 1512.44,993.323 1462.26,992.797C1272.38,990.809 1048.41,989.703 896.458,988.021C800.119,986.954 732.738,985.823 721.361,985.628C728.412,972.054 771.613,888.911 820.218,795.859C886.273,669.4 962.274,524.606 969.917,510.047C985.336,510.201 1170.88,512.016 1380.11,511.999C1441,511.994 1503.88,511.516 1565.17,511.086C1791.9,509.494 1996.7,507.158 1996.96,507.155L1996.96,507.155Z" style="fill:url(#_Linear2);"/>
    </g>
    <g transform="matrix(1.18854,0,0,0.84838,-173.541,332.973)">
        <path d="M1996.96,507.155C1996.92,507.154 1792.02,504.816 1565.17,503.224C1503.88,502.794 1441,502.316 1380.11,502.311C1161.57,502.293 968.882,504.274 968.882,504.274C968.224,504.274 967.606,504.714 967.219,505.459C967.219,505.459 887.617,660.261 818.459,794.066C765.661,896.218 718.929,986.107 718.929,986.107C718.735,986.48 718.706,986.974 718.854,987.387C719.001,987.801 719.301,988.064 719.631,988.07C719.631,988.07 790.536,989.518 896.416,992.373C1048.34,996.471 1272.25,1003.88 1462.1,1009.12C1512.28,1010.5 1560.07,1011.83 1603.53,1012.73C1644.85,1013.59 1682.24,1014.15 1714.03,1014.5C1782.17,1015.24 1824.54,1015.13 1824.54,1015.13C1826.56,1015.17 1828.41,1013.57 1829.29,1011.01C1829.29,1011.01 1996.93,507.235 1996.96,507.155L1996.96,507.155ZM1996.96,507.155L1821.44,1000.45C1810.34,1000.02 1771.34,998.56 1714.2,997.007C1682.42,996.143 1645.03,995.28 1603.71,994.566C1560.25,993.814 1512.44,993.323 1462.26,992.797C1272.38,990.809 1048.41,989.703 896.458,988.021C800.119,986.954 732.738,985.823 721.361,985.628C728.412,972.054 771.613,888.911 820.218,795.859C886.273,669.4 962.274,524.606 969.917,510.047C985.336,510.201 1170.88,512.016 1380.11,511.999C1441,511.994 1503.88,511.516 1565.17,511.086C1791.9,509.494 1996.7,507.158 1996.96,507.155L1996.96,507.155Z" style="fill:url(#_Linear3);"/>
    </g>
    <g transform="matrix(1.18854,0,0,0.84838,-180.464,134.023)">
        <path d="M1996.96,507.155L968.882,507.155L719.643,986.834L1824.61,1007.85L1996.96,507.155Z" style="fill:url(#_Linear4);"/>
        <path d="M1996.96,507.155C1996.92,507.154 1792.02,504.816 1565.17,503.224C1503.88,502.794 1441,502.316 1380.11,502.311C1161.57,502.293 968.882,504.274 968.882,504.274C968.224,504.274 967.606,504.714 967.219,505.459C967.219,505.459 887.617,660.261 818.459,794.066C765.661,896.218 718.929,986.107 718.929,986.107C718.735,986.48 718.706,986.974 718.854,987.387C719.001,987.801 719.301,988.064 719.631,988.07C719.631,988.07 790.536,989.518 896.416,992.373C1048.34,996.471 1272.25,1003.88 1462.1,1009.12C1512.28,1010.5 1560.07,1011.83 1603.53,1012.73C1644.85,1013.59 1682.24,1014.15 1714.03,1014.5C1782.17,1015.24 1824.54,1015.13 1824.54,1015.13C1826.56,1015.17 1828.41,1013.57 1829.29,1011.01L1996.96,507.155L1996.96,507.155ZM1996.96,507.155L1821.44,1000.45C1810.34,1000.02 1771.34,998.56 1714.2,997.007C1682.42,996.143 1645.03,995.28 1603.71,994.566C1560.25,993.814 1512.44,993.323 1462.26,992.797C1272.38,990.809 1048.41,989.703 896.458,988.021C800.119,986.954 732.738,985.823 721.361,985.628C728.412,972.054 771.613,888.911 820.218,795.859C886.273,669.4 962.274,524.606 969.917,510.047C985.336,510.201 1170.88,512.016 1380.11,511.999C1441,511.994 1503.88,511.516 1565.17,511.086C1791.9,509.494 1996.7,507.158 1996.96,507.155L1996.96,507.155Z" style="fill:url(#_Linear5);"/>
    </g>
    <defs>
        <linearGradient id="_Linear1" x1="0" y1="0" x2="1" y2="0" gradientUnits="userSpaceOnUse" gradientTransform="matrix(1285.69,-482.485,344.397,1801.2,717.982,982.079)"><stop offset="0" style="stop-color:white;stop-opacity:1"/><stop offset="0.13" style="stop-color:black;stop-opacity:1"/><stop offset="0.32" style="stop-color:rgb(0,59,255);stop-opacity:1"/><stop offset="0.86" style="stop-color:rgb(0,255,19);stop-opacity:1"/><stop offset="1" style="stop-color:white;stop-opacity:1"/></linearGradient>
        <linearGradient id="_Linear2" x1="0" y1="0" x2="1" y2="0" gradientUnits="userSpaceOnUse" gradientTransform="matrix(1285.69,-482.485,344.397,1801.2,717.982,982.079)"><stop offset="0" style="stop-color:white;stop-opacity:1"/><stop offset="0.13" style="stop-color:black;stop-opacity:1"/><stop offset="0.32" style="stop-color:rgb(0,59,255);stop-opacity:1"/><stop offset="0.86" style="stop-color:rgb(0,255,19);stop-opacity:1"/><stop offset="1" style="stop-color:white;stop-opacity:1"/></linearGradient>
        <linearGradient id="_Linear3" x1="0" y1="0" x2="1" y2="0" gradientUnits="userSpaceOnUse" gradientTransform="matrix(1285.69,-482.485,344.397,1801.2,717.982,982.079)"><stop offset="0" style="stop-color:white;stop-opacity:1"/><stop offset="0.13" style="stop-color:black;stop-opacity:1"/><stop offset="0.32" style="stop-color:rgb(0,59,255);stop-opacity:1"/><stop offset="0.86" style="stop-color:rgb(0,255,19);stop-opacity:1"/><stop offset="1" style="stop-color:white;stop-opacity:1"/></linearGradient>
        <linearGradient id="_Linear4" x1="0" y1="0" x2="1" y2="0" gradientUnits="userSpaceOnUse" gradientTransform="matrix(-126.207,-615.909,439.635,-176.811,1331.69,949.444)"><stop offset="0" style="stop-color:black;stop-opacity:1"/><stop offset="1" style="stop-color:rgb(47,47,47);stop-opacity:1"/></linearGradient>
        <linearGradient id="_Linear5" x1="0" y1="0" x2="1" y2="0" gradientUnits="userSpaceOnUse" gradientTransform="matrix(1285.69,-482.485,344.397,1801.2,717.982,982.079)"><stop offset="0" style="stop-color:white;stop-opacity:1"/><stop offset="0.13" style="stop-color:black;stop-opacity:1"/><stop offset="0.32" style="stop-color:rgb(0,59,255);stop-opacity:1"/><stop offset="0.86" style="stop-color:rgb(0,255,19);stop-opacity:1"/><stop offset="1" style="stop-color:white;stop-opacity:1"/></linearGradient>
    </defs>
</svg>
