<?xml version="1.0" encoding="UTF-8" standalone="no"?>
<!DOCTYPE svg PUBLIC "-//W3C//DTD SVG 1.1//EN" "http://www.w3.org/Graphics/SVG/1.1/DTD/svg11.dtd">
<svg width="100%" height="100%" viewBox="0 0 2732 2048" version="1.1" xmlns="http://www.w3.org/2000/svg" xmlns:xlink="http://www.w3.org/1999/xlink" xml:space="preserve" xmlns:serif="http://www.serif.com/" style="fill-rule:evenodd;clip-rule:evenodd;stroke-linejoin:round;stroke-miterlimit:2;">
    <g id="Layer1">
        <g transform="matrix(1,0,0,1,-14.673,10.0956)">
            <rect x="-97.319" y="-130.737" width="2938.22" height="2288.82"/>
        </g>
        <g transform="matrix(0.702366,0,0,0.58216,1048.56,638.281)">
            <path d="M910.136,1936.27C952.363,1936.14 993.905,1931.79 1033.54,1923.5C1075.96,1914.63 1116.2,1901.22 1152.67,1882.87C1244.62,1836.52 1324.54,1776.8 1394.15,1706.31C1467.4,1632.12 1529.2,1546.04 1582.24,1451.98C1738.33,1175.16 1817.44,827.825 1879.21,498.432C1879.24,498.258 1879.15,498.084 1879.01,498.045C1878.86,498.005 1878.72,498.114 1878.68,498.289C1816.36,827.263 1736.85,1174.26 1580.23,1450.33C1527.13,1543.94 1465.04,1629.22 1391.97,1703.17C1322.57,1773.42 1243.22,1833.47 1151.66,1879.98C1115.41,1898.41 1075.41,1912.16 1033.17,1920.94C993.668,1929.14 952.218,1932.97 910.136,1932.82C909.346,1932.82 908.704,1933.59 908.704,1934.55C908.704,1935.5 909.346,1936.27 910.136,1936.27Z" style="fill:url(#_Linear1);"/>
        </g>
        <path d="M258.139,1274.7C238.237,1441.84 313.275,1664.57 551.021,1827.54C726.602,1947.89 981.09,1967.98 1152.16,1881.42C1625.03,1642.18 1775.83,1045.43 1878.94,498.36" style="fill:url(#_Linear2);"/>
        <path d="M257.14,1274.58C250.093,1334.37 255.391,1401.18 275.471,1469.94C287.17,1510.01 303.803,1550.78 326.284,1591.16C373.372,1675.74 445.668,1758.71 548.974,1830.52C634.828,1890.05 739.664,1925.85 844.62,1936.59C887.339,1940.95 930.086,1941.21 971.525,1937.13C1037.43,1930.64 1100.01,1913.27 1154.22,1885.5C1293.01,1813.83 1403.28,1711.22 1493.23,1588.68C1531.07,1537.13 1565.42,1482.12 1596.63,1424.23C1699.79,1232.88 1769.77,1010.59 1821.7,784.211C1843.57,688.923 1861.87,592.877 1879.13,498.395C1879.15,498.293 1879.08,498.194 1878.98,498.175C1878.88,498.156 1878.78,498.223 1878.76,498.326C1860.44,592.576 1840.34,688.207 1818.13,783.385C1765.41,1009.39 1698.84,1232.56 1595.81,1423.79C1564.64,1481.63 1530.25,1536.6 1491.93,1587.72C1401.27,1708.65 1289.26,1808.38 1150.1,1877.35C1096.68,1904.05 1035.11,1920.01 970.464,1926.16C929.698,1930.04 887.7,1930.05 845.661,1926.05C742.102,1916.19 638.338,1882.34 553.067,1824.55C449.538,1754.58 376.574,1673.17 328.821,1589.73C305.954,1549.77 288.766,1509.37 276.951,1469.51C256.669,1401.08 251.975,1334.37 259.138,1274.82C259.203,1274.27 258.809,1273.77 258.258,1273.7C257.707,1273.63 257.206,1274.03 257.14,1274.58Z" style="fill:url(#_Linear3);"/>
        <g transform="matrix(0.900906,0,0,0.869763,336.988,210.596)">
            <path d="M876.498,1934.39C924.603,1937.04 972.314,1934.43 1017.77,1926.46C1066.08,1918 1111.84,1903.48 1152.85,1882.87C1349.01,1783.5 1489.84,1622.74 1594.71,1429.46C1647.63,1331.94 1691.1,1226.04 1728.52,1115.81C1764.75,1009.09 1796.02,898.462 1821.74,786.505C1843.8,690.5 1861.79,593.608 1878.94,498.36C1860.26,593.257 1839.54,689.481 1817.11,785.353C1790.97,897.091 1762.56,1008.41 1726.71,1115.15C1689.7,1225.38 1645.5,1330.85 1592.52,1428.18C1487.67,1620.78 1347.2,1781.07 1151.48,1879.98C1110.8,1900.7 1065.37,1915.36 1017.38,1924.08C972.097,1932.31 924.548,1935.25 876.567,1932.95C876.183,1932.93 875.855,1933.24 875.836,1933.64C875.817,1934.04 876.114,1934.38 876.498,1934.39Z" style="fill:url(#_Linear4);"/>
        </g>
        <g transform="matrix(0.830713,0,0,0.730118,660.553,424.425)">
            <path d="M881.993,1934.02C928.999,1936.8 975.599,1934.6 1020.07,1927.14C1043.37,1923.23 1066.12,1918 1087.96,1911.08C1110.8,1903.84 1132.62,1894.74 1153.27,1884.25C1228.03,1845.94 1294.61,1798.62 1354.33,1744.2C1447.39,1659.38 1523.59,1557 1587,1442.89C1694.36,1249.71 1765.6,1023.24 1819.08,792.454C1841.8,694.431 1861.15,595.614 1879.17,498.415C1879.19,498.275 1879.12,498.138 1878.99,498.108C1878.87,498.078 1878.75,498.167 1878.72,498.306C1860.13,595.337 1839.87,693.877 1816.89,791.791C1762.84,1022.15 1692.9,1248.93 1585.39,1441.73C1521.98,1555.45 1445.68,1657.46 1352.35,1741.38C1292.6,1795.1 1225.79,1841.27 1151.06,1878.59C1130.62,1888.9 1108.94,1897.51 1086.43,1904.93C1064.83,1912.05 1042.45,1918.07 1019.43,1922.61C975.277,1931.33 928.911,1935.12 881.999,1933.85C881.957,1933.84 881.922,1933.88 881.921,1933.93C881.919,1933.98 881.952,1934.02 881.993,1934.02Z" style="fill:url(#_Linear5);"/>
        </g>
    </g>
    <defs>
        <linearGradient id="_Linear1" x1="0" y1="0" x2="1" y2="0" gradientUnits="userSpaceOnUse" gradientTransform="matrix(719.231,-1296.29,1074.44,867.74,1161.87,1994.86)"><stop offset="0" style="stop-color:rgb(0,137,255);stop-opacity:1"/><stop offset="0.57" style="stop-color:rgb(0,255,17);stop-opacity:1"/><stop offset="1" style="stop-color:white;stop-opacity:1"/></linearGradient>
        <linearGradient id="_Linear2" x1="0" y1="0" x2="1" y2="0" gradientUnits="userSpaceOnUse" gradientTransform="matrix(-383.572,-1800.05,1800.05,-383.572,1076.4,3030.15)"><stop offset="0" style="stop-color:white;stop-opacity:1"/><stop offset="0.19" style="stop-color:rgb(123,123,123);stop-opacity:1"/><stop offset="1" style="stop-color:black;stop-opacity:1"/></linearGradient>
        <linearGradient id="_Linear3" x1="0" y1="0" x2="1" y2="0" gradientUnits="userSpaceOnUse" gradientTransform="matrix(-1640.71,1104.92,-1104.92,-1640.71,1913.98,631.935)"><stop offset="0" style="stop-color:rgb(255,240,249);stop-opacity:1"/><stop offset="0.48" style="stop-color:rgb(7,255,0);stop-opacity:1"/><stop offset="1" style="stop-color:rgb(0,35,108);stop-opacity:1"/></linearGradient>
        <linearGradient id="_Linear4" x1="0" y1="0" x2="1" y2="0" gradientUnits="userSpaceOnUse" gradientTransform="matrix(906.226,-890.01,859.245,938.674,1153.36,1575.31)"><stop offset="0" style="stop-color:rgb(0,137,255);stop-opacity:1"/><stop offset="0.54" style="stop-color:rgb(26,255,0);stop-opacity:1"/><stop offset="1" style="stop-color:white;stop-opacity:1"/></linearGradient>
        <linearGradient id="_Linear5" x1="0" y1="0" x2="1" y2="0" gradientUnits="userSpaceOnUse" gradientTransform="matrix(644.218,-1150.36,1011.05,732.977,1226.22,1806.03)"><stop offset="0" style="stop-color:rgb(0,137,255);stop-opacity:1"/><stop offset="0.55" style="stop-color:rgb(0,255,8);stop-opacity:1"/><stop offset="1" style="stop-color:white;stop-opacity:1"/></linearGradient>
    </defs>
</svg>
