<svg width="1633" height="322" viewBox="0 0 1633 322" fill="none" xmlns="http://www.w3.org/2000/svg">
<path d="M652.758 115.766L651.505 117.325L651.519 117.336L651.533 117.347L652.758 115.766ZM670.922 138.227L671.588 140.113L673.66 139.381L672.737 137.387L670.922 138.227ZM657.641 142.914L655.894 143.889L656.716 145.361L658.306 144.8L657.641 142.914ZM589.672 136.859L591.289 138.036L591.296 138.027L589.672 136.859ZM589.867 229.242L588.265 230.439L588.272 230.448L589.867 229.242ZM646.117 238.812L647.307 240.42L647.317 240.413L647.327 240.405L646.117 238.812ZM660.766 220.648L661.374 218.743L659.681 218.202L658.945 219.821L660.766 220.648ZM674.828 225.141L676.641 225.985L677.6 223.926L675.437 223.235L674.828 225.141ZM655.492 249.555L656.727 251.128L656.734 251.122L656.742 251.116L655.492 249.555ZM578.539 239.203L577.013 240.496L577.02 240.504L577.027 240.512L578.539 239.203ZM563.156 182.953C563.156 159.441 568.871 141.203 580.065 127.996L577.013 125.41C565.03 139.547 559.156 158.809 559.156 182.953H563.156ZM580.065 127.996C591.26 114.789 605.733 108.195 623.656 108.195V104.195C604.6 104.195 588.996 111.274 577.013 125.41L580.065 127.996ZM623.656 108.195C634.719 108.195 643.962 111.265 651.505 117.325L654.01 114.206C645.668 107.505 635.51 104.195 623.656 104.195V108.195ZM651.533 117.347C659.369 123.413 665.213 130.651 669.107 139.066L672.737 137.387C668.558 128.354 662.292 120.618 653.982 114.184L651.533 117.347ZM670.256 136.341L656.975 141.028L658.306 144.8L671.588 140.113L670.256 136.341ZM659.387 141.939C650.417 125.874 638.38 117.477 623.266 117.477V121.477C636.537 121.477 647.416 128.704 655.894 143.889L659.387 141.939ZM623.266 117.477C608.548 117.477 596.751 123.59 588.048 135.692L591.296 138.027C599.26 126.952 609.858 121.477 623.266 121.477V117.477ZM588.054 135.683C579.397 147.587 575.172 163.409 575.172 182.953H579.172C579.172 163.955 583.28 149.048 591.289 138.036L588.054 135.683ZM575.172 182.953C575.172 202.755 579.461 218.655 588.265 230.439L591.469 228.045C583.346 217.173 579.172 202.214 579.172 182.953H575.172ZM588.272 230.448C597.106 242.136 608.824 248.039 623.266 248.039V244.039C610.103 244.039 599.556 238.744 591.463 228.036L588.272 230.448ZM623.266 248.039C632.383 248.039 640.425 245.513 647.307 240.42L644.928 237.205C638.789 241.748 631.596 244.039 623.266 244.039V248.039ZM647.327 240.405C654.091 235.265 659.189 228.951 662.586 221.476L658.945 219.821C655.832 226.669 651.165 232.464 644.907 237.22L647.327 240.405ZM660.157 222.554L674.22 227.046L675.437 223.235L661.374 218.743L660.157 222.554ZM673.015 224.296C668.723 233.513 662.474 241.408 654.243 247.993L656.742 251.116C665.437 244.16 672.079 235.779 676.641 225.985L673.015 224.296ZM654.258 247.981C646.209 254.296 636.056 257.516 623.656 257.516V261.516C636.778 261.516 647.849 258.094 656.727 251.128L654.258 247.981ZM623.656 257.516C605.861 257.516 591.379 250.985 580.051 237.894L577.027 240.512C589.136 254.505 604.733 261.516 623.656 261.516V257.516ZM580.065 237.91C568.871 224.704 563.156 206.465 563.156 182.953H559.156C559.156 207.097 565.03 226.359 577.013 240.496L580.065 237.91ZM768.188 201.312L766.302 200.646L765.36 203.312H768.188V201.312ZM823.266 201.312V203.312H826.082L825.154 200.653L823.266 201.312ZM806.078 152.094L804.189 152.751L804.19 152.753L806.078 152.094ZM801 137.836L799.103 138.468L799.11 138.491L799.118 138.513L801 137.836ZM796.312 123.969L798.2 123.308L797.731 121.969H796.312V123.969ZM795.141 123.969V121.969H793.71L793.248 123.322L795.141 123.969ZM785.57 152.094L787.456 152.76L787.462 152.743L787.468 152.726L785.57 152.094ZM731.469 256L729.595 255.3L728.586 258H731.469V256ZM786.156 109.711V107.711H784.769L784.283 109.011L786.156 109.711ZM805.297 109.711L807.17 109.011L806.684 107.711H805.297V109.711ZM859.984 256V258H862.867L861.858 255.3L859.984 256ZM842.797 256L840.91 256.664L841.38 258H842.797V256ZM827.953 213.812L829.84 213.149L829.37 211.812H827.953V213.812ZM763.5 213.812V211.812H762.084L761.613 213.149L763.5 213.812ZM748.656 256V258H750.073L750.543 256.664L748.656 256ZM768.188 203.312H823.266V199.312H768.188V203.312ZM825.154 200.653L807.966 151.434L804.19 152.753L821.377 201.972L825.154 200.653ZM807.967 151.437C806.922 148.431 805.226 143.67 802.882 137.158L799.118 138.513C801.462 145.023 803.151 149.767 804.189 152.751L807.967 151.437ZM802.897 137.203C800.684 130.563 799.117 125.928 798.2 123.308L794.425 124.629C795.331 127.218 796.889 131.827 799.103 138.468L802.897 137.203ZM796.312 121.969H795.141V125.969H796.312V121.969ZM793.248 123.322C787.781 139.334 784.587 148.718 783.673 151.461L787.468 152.726C788.376 150.001 791.563 140.635 797.033 124.615L793.248 123.322ZM783.684 151.428L766.302 200.646L770.073 201.979L787.456 152.76L783.684 151.428ZM733.342 256.7L788.03 110.411L784.283 109.011L729.595 255.3L733.342 256.7ZM786.156 111.711H805.297V107.711H786.156V111.711ZM803.423 110.411L858.111 256.7L861.858 255.3L807.17 109.011L803.423 110.411ZM859.984 254H842.797V258H859.984V254ZM844.683 255.336L829.84 213.149L826.067 214.476L840.91 256.664L844.683 255.336ZM827.953 211.812H763.5V215.812H827.953V211.812ZM761.613 213.149L746.77 255.336L750.543 256.664L765.387 214.476L761.613 213.149ZM748.656 254H731.469V258H748.656V254ZM929.516 256H927.516V258H929.516V256ZM929.516 109.711V107.711H927.516V109.711H929.516ZM1018.19 121.43L1016.81 122.878L1016.81 122.883L1016.82 122.889L1018.19 121.43ZM945.141 195.453V193.453H943.141V195.453H945.141ZM945.141 256V258H947.141V256H945.141ZM945.141 182.367H943.141V184.367H945.141V182.367ZM1006.08 174.945L1007.4 176.444L1007.4 176.442L1006.08 174.945ZM1006.08 130.609L1004.73 132.091L1004.75 132.107L1004.77 132.123L1006.08 130.609ZM945.141 122.992V120.992H943.141V122.992H945.141ZM931.516 256V109.711H927.516V256H931.516ZM929.516 111.711H984.594V107.711H929.516V111.711ZM984.594 111.711C998.409 111.711 1009.06 115.503 1016.81 122.878L1019.57 119.981C1010.9 111.731 999.164 107.711 984.594 107.711V111.711ZM1016.82 122.889C1024.7 130.273 1028.69 140.068 1028.69 152.484H1032.69C1032.69 139.119 1028.35 128.212 1019.56 119.971L1016.82 122.889ZM1028.69 152.484C1028.69 165.302 1024.62 175.208 1016.65 182.449L1019.34 185.411C1028.29 177.287 1032.69 166.229 1032.69 152.484H1028.69ZM1016.65 182.449C1008.63 189.731 998.007 193.453 984.594 193.453V197.453C998.784 197.453 1010.43 193.493 1019.34 185.411L1016.65 182.449ZM984.594 193.453H945.141V197.453H984.594V193.453ZM943.141 195.453V256H947.141V195.453H943.141ZM945.141 254H929.516V258H945.141V254ZM945.141 184.367H982.25V180.367H945.141V184.367ZM982.25 184.367C992.84 184.367 1001.32 181.819 1007.4 176.444L1004.75 173.447C999.638 177.967 992.233 180.367 982.25 180.367V184.367ZM1007.4 176.442C1013.68 170.88 1016.67 162.774 1016.67 152.484H1012.67C1012.67 161.986 1009.93 168.854 1004.75 173.449L1007.4 176.442ZM1016.67 152.484C1016.67 142.438 1013.67 134.522 1007.39 129.096L1004.77 132.123C1009.95 136.592 1012.67 143.26 1012.67 152.484H1016.67ZM1007.42 129.128C1001.33 123.604 992.706 120.992 981.859 120.992V124.992C992.106 124.992 999.627 127.458 1004.73 132.091L1007.42 129.128ZM981.859 120.992H945.141V124.992H981.859V120.992ZM943.141 122.992V182.367H947.141V122.992H943.141ZM1108.81 256H1106.81V258H1108.81V256ZM1108.81 109.711V107.711H1106.81V109.711H1108.81ZM1124.44 109.711H1126.44V107.711H1124.44V109.711ZM1124.44 256V258H1126.44V256H1124.44ZM1110.81 256V109.711H1106.81V256H1110.81ZM1108.81 111.711H1124.44V107.711H1108.81V111.711ZM1122.44 109.711V256H1126.44V109.711H1122.44ZM1124.44 254H1108.81V258H1124.44V254ZM1196.9 122.992H1194.9V124.992H1196.9V122.992ZM1196.9 109.711V107.711H1194.9V109.711H1196.9ZM1301.59 109.711H1303.59V107.711H1301.59V109.711ZM1301.59 122.992V124.992H1303.59V122.992H1301.59ZM1257.05 122.992V120.992H1255.05V122.992H1257.05ZM1257.05 256V258H1259.05V256H1257.05ZM1241.43 256H1239.43V258H1241.43V256ZM1241.43 122.992H1243.43V120.992H1241.43V122.992ZM1198.9 122.992V109.711H1194.9V122.992H1198.9ZM1196.9 111.711H1301.59V107.711H1196.9V111.711ZM1299.59 109.711V122.992H1303.59V109.711H1299.59ZM1301.59 120.992H1257.05V124.992H1301.59V120.992ZM1255.05 122.992V256H1259.05V122.992H1255.05ZM1257.05 254H1241.43V258H1257.05V254ZM1243.43 256V122.992H1239.43V256H1243.43ZM1241.43 120.992H1196.9V124.992H1241.43V120.992ZM1384.79 201.312L1382.9 200.646L1381.96 203.312H1384.79V201.312ZM1439.87 201.312V203.312H1442.68L1441.76 200.653L1439.87 201.312ZM1422.68 152.094L1420.79 152.751L1420.79 152.753L1422.68 152.094ZM1417.6 137.836L1415.7 138.468L1415.71 138.491L1415.72 138.513L1417.6 137.836ZM1412.91 123.969L1414.8 123.308L1414.33 121.969H1412.91V123.969ZM1411.74 123.969V121.969H1410.31L1409.85 123.322L1411.74 123.969ZM1402.17 152.094L1404.06 152.76L1404.06 152.743L1404.07 152.726L1402.17 152.094ZM1348.07 256L1346.2 255.3L1345.19 258H1348.07V256ZM1402.76 109.711V107.711H1401.37L1400.88 109.011L1402.76 109.711ZM1421.9 109.711L1423.77 109.011L1423.29 107.711H1421.9V109.711ZM1476.59 256V258H1479.47L1478.46 255.3L1476.59 256ZM1459.4 256L1457.51 256.664L1457.98 258H1459.4V256ZM1444.55 213.812L1446.44 213.149L1445.97 211.812H1444.55V213.812ZM1380.1 213.812V211.812H1378.69L1378.21 213.149L1380.1 213.812ZM1365.26 256V258H1366.67L1367.14 256.664L1365.26 256ZM1384.79 203.312H1439.87V199.312H1384.79V203.312ZM1441.76 200.653L1424.57 151.434L1420.79 152.753L1437.98 201.972L1441.76 200.653ZM1424.57 151.437C1423.52 148.431 1421.83 143.67 1419.48 137.158L1415.72 138.513C1418.06 145.023 1419.75 149.767 1420.79 152.751L1424.57 151.437ZM1419.5 137.203C1417.29 130.563 1415.72 125.928 1414.8 123.308L1411.03 124.629C1411.93 127.218 1413.49 131.827 1415.7 138.468L1419.5 137.203ZM1412.91 121.969H1411.74V125.969H1412.91V121.969ZM1409.85 123.322C1404.38 139.334 1401.19 148.718 1400.27 151.461L1404.07 152.726C1404.98 150.001 1408.16 140.635 1413.63 124.615L1409.85 123.322ZM1400.29 151.428L1382.9 200.646L1386.67 201.979L1404.06 152.76L1400.29 151.428ZM1349.94 256.7L1404.63 110.411L1400.88 109.011L1346.2 255.3L1349.94 256.7ZM1402.76 111.711H1421.9V107.711H1402.76V111.711ZM1420.03 110.411L1474.71 256.7L1478.46 255.3L1423.77 109.011L1420.03 110.411ZM1476.59 254H1459.4V258H1476.59V254ZM1461.29 255.336L1446.44 213.149L1442.67 214.476L1457.51 256.664L1461.29 255.336ZM1444.55 211.812H1380.1V215.812H1444.55V211.812ZM1378.21 213.149L1363.37 255.336L1367.14 256.664L1381.99 214.476L1378.21 213.149ZM1365.26 254H1348.07V258H1365.26V254ZM1546.12 256H1544.12V258H1546.12V256ZM1546.12 109.711V107.711H1544.12V109.711H1546.12ZM1561.74 109.711H1563.74V107.711H1561.74V109.711ZM1561.74 242.719H1559.74V244.719H1561.74V242.719ZM1631.27 242.719H1633.27V240.719H1631.27V242.719ZM1631.27 256V258H1633.27V256H1631.27ZM1548.12 256V109.711H1544.12V256H1548.12ZM1546.12 111.711H1561.74V107.711H1546.12V111.711ZM1559.74 109.711V242.719H1563.74V109.711H1559.74ZM1561.74 244.719H1631.27V240.719H1561.74V244.719ZM1629.27 242.719V256H1633.27V242.719H1629.27ZM1631.27 254H1546.12V258H1631.27V254Z" fill="white"/>
<line x1="503.5" y1="22.0017" x2="502.5" y2="321.002" stroke="white"/>
<path fill-rule="evenodd" clip-rule="evenodd" d="M186 268.921V278H337.535H338.895L337.535 275.672L314.366 236H240V68H186V77.3163C187.584 78.6108 189.099 79.9908 190.543 81.4575C203.834 94.5471 210 113.417 210 137V209C210 232.612 203.82 251.565 190.543 264.843C189.098 266.287 187.584 267.646 186 268.921ZM186 260.898V85.3973C186.1 85.4978 186.2 85.5987 186.3 85.7C198.1 97.3 204 114.4 204 137V209C204 231.6 198.1 248.8 186.3 260.6C186.2 260.7 186.1 260.799 186 260.898ZM337.535 110V223.94L338.141 236L340.249 278H349.5H391.535V110H454.535V68H274.535V110H337.535Z" fill="white"/>
<path d="M135 68C157.6 68 174.7 73.9 186.3 85.7C198.1 97.3 204 114.4 204 137V209C204 231.6 198.1 248.8 186.3 260.6C174.7 272.2 157.6 278 135 278H18V68H135ZM150 137C150 119 141 110 123 110H72V236H123C141 236 150 227 150 209V137Z" fill="white"/>
</svg>
